<?xml version="1.0" encoding="utf-8"?>
<!-- Generator: Adobe Illustrator 17.0.0, SVG Export Plug-In . SVG Version: 6.00 Build 0)  -->
<!DOCTYPE svg PUBLIC "-//W3C//DTD SVG 1.1//EN" "http://www.w3.org/Graphics/SVG/1.1/DTD/svg11.dtd">
<svg version="1.1" xmlns="http://www.w3.org/2000/svg" xmlns:xlink="http://www.w3.org/1999/xlink" x="0px" y="0px"
	 width="45.062px" height="18px" viewBox="0 0 45.062 18" enable-background="new 0 0 45.062 18" xml:space="preserve">
<g id="Intro_6">
</g>
<g id="Intro_5">
</g>
<g id="Intro_4">
</g>
<g id="Intro_3">
</g>
<g id="Intro_2">
	<g id="Grid_1_">
	</g>
</g>
<g id="Intro_1">
	<g id="View">
	</g>
	<g id="Grid">
	</g>
</g>
<g id="Extras">
	<g>
		<path fill="#212121" d="M3.048,17.597c0,0.148-0.121,0.268-0.268,0.268H0.268C0.121,17.866,0,17.745,0,17.597V0.268
			C0,0.121,0.121,0,0.268,0H2.78c0.148,0,0.268,0.121,0.268,0.268V17.597z"/>
		<path fill="#212121" d="M33.383,15.117v2.525c0,0.148-0.121,0.268-0.268,0.268H29.1c-0.214,0-0.389-0.169-0.401-0.381V10.4
			c0-0.768-0.087-1.336-0.263-1.704c-0.256-0.513-0.72-0.768-1.393-0.768c-0.619,0-1.078,0.248-1.378,0.742
			c-0.01,0.019-0.027,0.014-0.029,0.001c-0.051-0.356-0.133-0.628-0.211-0.823c-0.189-0.483-0.467-0.93-0.787-1.267
			c-0.007-0.007-0.022-0.023-0.035-0.037c-0.008-0.009-0.008-0.029-0.003-0.034c0.01-0.01,0.021-0.02,0.031-0.03
			c0.791-0.763,1.795-1.145,3.012-1.145c2.737,0,4.105,1.56,4.105,4.681v4.832h1.366C33.262,14.849,33.383,14.969,33.383,15.117z
			 M24.332,6.8c-0.781-0.916-1.978-1.375-3.591-1.375c-0.106,0-0.212,0.002-0.322,0.006c-1.203,0-2.15,0.41-2.84,1.23
			c-0.023,0.03-0.025,0.041,0.002,0.062c0.027,0.021,1.931,1.502,1.931,1.502s0.014,0.016,0.04-0.006
			c0.262-0.193,0.583-0.29,0.963-0.29c0.704,0,1.184,0.328,1.44,0.984c0.161,0.401,0.241,1.033,0.241,1.896l0.003,6.834
			c0,0.148,0.121,0.268,0.268,0.268h2.512c0.148,0,0.268-0.121,0.268-0.268l-0.003-6.93c0.017-0.361,0.054-0.626,0.059-0.918V9.794
			c0.053-0.849-0.076-1.442-0.224-1.81C24.896,7.515,24.63,7.101,24.332,6.8z M19.232,8.479c0,0-3.463-2.754-3.511-2.793
			c-0.048-0.039-0.08-0.061-0.08,0c0,0.554,0,12.046,0,12.046c0,0.148,0.121,0.268,0.268,0.268h2.512
			c0.148,0,0.268-0.121,0.268-0.268l0-6.805c0-1.072,0.181-1.852,0.542-2.34c0.01-0.014,0.026-0.037,0.038-0.06
			C19.275,8.509,19.232,8.479,19.232,8.479z"/>
		<path fill="#212121" d="M45.062,11.929c0-3.873-2.363-6.475-5.881-6.475c-3.461,0-6.071,2.692-6.071,6.261
			c0,3.7,2.574,6.285,6.26,6.285c1.88,0,3.64-0.639,4.828-1.755l0.16-0.15l-0.004-0.006l0.036-0.026
			c0.12-0.085,0.149-0.254,0.064-0.374l-1.067-1.624c-0.085-0.121-0.254-0.149-0.374-0.064l-0.441,0.365
			c-0.742,0.662-1.883,1.083-2.964,1.083c-2.099,0-3.089-1.369-3.337-2.649c0,0,8.342,0,8.534,0c0.191,0,0.257-0.145,0.257-0.257
			C45.062,12.432,45.062,11.929,45.062,11.929z M36.236,10.511c0.196-1.254,1.153-2.507,2.921-2.507c2.066,0,2.82,1.468,2.972,2.507
			H36.236z"/>
		<path fill="#212121" d="M6.426,15.712c0.181-0.499,0.522-0.877,1.015-1.123c0.118-0.059,0.237-0.104,0.358-0.139
			c-0.37-0.338-0.622-0.811-0.72-1.373c-0.029-0.164-0.032-0.321-0.032-0.5V5.862c0-0.149-0.122-0.272-0.272-0.272H4.234
			c-0.149,0-0.272,0.122-0.272,0.272c0,0-0.001,5.274-0.002,6.896c0.004,0.421,0.056,0.828,0.149,1.218
			c0.332,1.377,1.193,2.529,2.367,3.243C6.263,16.717,6.246,16.211,6.426,15.712z"/>
		<path fill="#212121" d="M14.683,5.726c0-0.15-0.122-0.272-0.272-0.272h-2.541c-0.149,0-0.232,0.122-0.232,0.272v6.868
			c0,0.169-0.015,0.331-0.042,0.488c-0.199,1.141-1.098,1.927-2.284,1.927c-0.386,0-0.735-0.083-1.038-0.234
			c-0.22,0.009-0.439,0.068-0.653,0.175c-0.403,0.201-0.67,0.496-0.816,0.9c-0.149,0.412-0.133,0.815,0.05,1.232
			c0.089,0.202,0.209,0.369,0.362,0.511C7.857,17.855,8.564,18,9.312,18c2.565,0,4.701-1.688,5.265-4.024
			c0.098-0.407,0.106-0.833,0.106-1.274L14.683,5.726z"/>
	</g>
</g>
</svg>
