<?xml version="1.0" encoding="utf-8"?>
<!-- Generator: Adobe Illustrator 17.0.0, SVG Export Plug-In . SVG Version: 6.00 Build 0)  -->
<!DOCTYPE svg PUBLIC "-//W3C//DTD SVG 1.1//EN" "http://www.w3.org/Graphics/SVG/1.1/DTD/svg11.dtd">
<svg version="1.1" xmlns="http://www.w3.org/2000/svg" xmlns:xlink="http://www.w3.org/1999/xlink" x="0px" y="0px"
	 width="135.186px" height="54px" viewBox="0 0 135.186 54" enable-background="new 0 0 135.186 54" xml:space="preserve">
<g id="Intro_6">
</g>
<g id="Intro_5">
</g>
<g id="Intro_4">
</g>
<g id="Intro_3">
</g>
<g id="Intro_2">
	<g id="Grid_1_">
	</g>
</g>
<g id="Intro_1">
	<g id="View">
		<radialGradient id="lume_violet_2_3_" cx="120.9284" cy="11.1579" r="62.7517" gradientUnits="userSpaceOnUse">
			<stop  offset="0" style="stop-color:#4EA9FF"/>
			<stop  offset="1" style="stop-color:#5031DE"/>
		</radialGradient>
		<path id="lume_violet_2_1_" fill="url(#lume_violet_2_3_)" d="M8.089,1.056v51.485H1.056V1.056H8.089 M82.931,17.063
			c7.577,0,11.26,4.248,11.26,12.986v14.497v1.056h1.056h3.848v7.074H87.301c-0.071,0-0.134-0.057-0.145-0.129V31.201
			c0-2.489-0.292-4.31-0.901-5.583c-0.658-1.318-2.081-2.889-5.122-2.889c-1.415,0-2.638,0.388-3.62,1.137
			c-0.076-0.245-0.161-0.481-0.251-0.706c-0.502-1.286-1.209-2.507-2.022-3.508C77.319,17.911,79.844,17.063,82.931,17.063
			 M62.222,17.333c4.493,0,7.847,1.262,9.97,3.753l0.026,0.03l0.029,0.029c0.811,0.816,1.523,1.949,2.01,3.202
			c0.294,0.732,0.762,2.351,0.597,4.969l-0.002,0.025v0.024c-0.008,0.446-0.042,0.869-0.082,1.358
			c-0.034,0.421-0.07,0.856-0.094,1.365l-0.001,0.025v0.025l0.01,20.538h-7.033l-0.009-20.251c0-2.755-0.261-4.744-0.794-6.073
			c-0.924-2.371-2.758-3.624-5.305-3.624c-1.091,0-2.065,0.231-2.905,0.687l-4.442-3.455c1.798-1.755,4.117-2.611,7.061-2.611h0.018
			l0.018-0.001C61.608,17.34,61.915,17.333,62.222,17.333 M117.543,17.419c9.921,0,16.587,7.382,16.587,18.369v1.558h-25.315h-1.281
			l0.243,1.257c0.824,4.255,4.159,8.803,11.047,8.803c3.479,0,7.148-1.342,9.579-3.503l1.045-0.864l2.916,4.434l-0.744,0.549
			l0.074,0.109c-3.369,3.062-8.302,4.813-13.582,4.813c-10.437,0-17.725-7.319-17.725-17.798
			C100.386,25.04,107.762,17.419,117.543,17.419 M107.475,32.59h1.234h17.678h1.222l-0.177-1.209
			c-0.596-4.072-3.526-8.423-9.96-8.423c-5.864,0-9.15,4.225-9.805,8.413L107.475,32.59 M42.992,17.419l0.001,20.687
			c-0.001,1.306-0.023,2.476-0.288,3.574c-1.604,6.632-7.677,11.265-14.77,11.265c-1.984,0-3.901-0.361-5.699-1.071
			c-0.296-0.304-0.528-0.651-0.706-1.054c-0.439-1.004-0.478-1.93-0.123-2.912c0.348-0.96,0.961-1.632,1.926-2.114
			c0.429-0.213,0.862-0.346,1.291-0.395c1.013,0.454,2.125,0.684,3.311,0.684c4.024,0,7.195-2.674,7.891-6.655
			c0.095-0.546,0.143-1.098,0.143-1.645l0.001-20.363H42.992 M20.085,17.827v19.901c0,0.55,0.009,1.093,0.111,1.682
			c0.231,1.327,0.72,2.523,1.434,3.527c-1.61,0.866-2.735,2.157-3.345,3.841c-0.289,0.798-0.434,1.603-0.436,2.408
			c-2.22-1.966-3.784-4.559-4.494-7.504c-0.266-1.107-0.407-2.257-0.419-3.407c0.002-4.512,0.006-18.442,0.006-20.447H20.085
			 M47.98,19.059c2.323,1.849,6.726,5.35,8.445,6.716c-0.949,1.646-1.412,3.948-1.412,7.003l-0.001,20.165H47.98V19.059 M8.34,0
			H0.806C0.363,0,0,0.363,0,0.805v51.987c0,0.443,0.363,0.806,0.806,0.806H8.34c0.443,0,0.806-0.363,0.806-0.806V0.805
			C9.146,0.363,8.783,0,8.34,0L8.34,0z M82.931,16.007c-3.649,0-6.661,1.145-9.035,3.433c-0.031,0.03-0.063,0.06-0.094,0.091
			c-0.014,0.014-0.015,0.075,0.008,0.101c0.038,0.041,0.086,0.09,0.105,0.111c0.962,1.01,1.796,2.35,2.362,3.8
			c0.234,0.586,0.48,1.402,0.634,2.47c0.003,0.021,0.019,0.035,0.038,0.035c0.015,0,0.035-0.011,0.048-0.037
			c0.899-1.483,2.278-2.226,4.134-2.226c2.017,0,3.409,0.767,4.177,2.305c0.528,1.104,0.79,2.807,0.79,5.111V52.59
			c0.035,0.634,0.559,1.142,1.202,1.142h12.045c0.442,0,0.806-0.363,0.806-0.805v-7.576c0-0.443-0.363-0.806-0.806-0.806h-4.099
			V30.049C95.247,20.688,91.142,16.007,82.931,16.007L82.931,16.007z M62.222,16.277c-0.318,0-0.636,0.007-0.964,0.018
			c-3.609,0-6.449,1.229-8.52,3.689c-0.068,0.089-0.073,0.124,0.006,0.186c0.079,0.062,5.793,4.506,5.793,4.506
			s0.013,0.016,0.041,0.016c0.019,0,0.044-0.008,0.077-0.036c0.785-0.58,1.747-0.87,2.889-0.87c2.114,0,3.553,0.983,4.321,2.951
			c0.483,1.202,0.722,3.098,0.722,5.689l0.009,20.502c0,0.442,0.363,0.805,0.806,0.805h7.534c0.444,0,0.806-0.363,0.806-0.805
			l-0.01-20.79c0.051-1.084,0.162-1.877,0.177-2.753v-0.002c0.16-2.547-0.229-4.328-0.671-5.429
			c-0.548-1.408-1.346-2.652-2.241-3.553C70.651,17.651,67.061,16.277,62.222,16.277L62.222,16.277z M117.543,16.362
			c-10.384,0-18.213,8.075-18.213,18.783C99.33,46.247,107.053,54,118.112,54c5.64,0,10.918-1.918,14.483-5.263l0.48-0.451
			l-0.011-0.018l0.108-0.077c0.361-0.256,0.447-0.761,0.191-1.122l-3.202-4.871c-0.156-0.221-0.405-0.339-0.658-0.339
			c-0.161,0-0.324,0.048-0.464,0.147l-1.322,1.094c-2.226,1.986-5.648,3.248-8.891,3.248c-6.296,0-9.267-4.107-10.01-7.947
			c0,0,25.027,0,25.601,0c0.573,0,0.77-0.436,0.77-0.77c0-0.335,0-1.844,0-1.844C135.186,24.169,128.097,16.362,117.543,16.362
			L117.543,16.362z M108.709,31.534c0.589-3.763,3.458-7.52,8.763-7.52c6.2,0,8.46,4.406,8.915,7.52H108.709L108.709,31.534z
			 M43.233,16.362h-7.625c-0.447,0-0.695,0.367-0.695,0.815v20.604c0,0.506-0.046,0.994-0.127,1.464
			c-0.598,3.423-3.295,5.78-6.851,5.78c-1.158,0-2.204-0.25-3.114-0.702c-0.659,0.028-1.316,0.204-1.959,0.524
			c-1.208,0.604-2.009,1.488-2.449,2.7c-0.447,1.237-0.398,2.446,0.148,3.695c0.268,0.607,0.628,1.108,1.086,1.533
			C23.57,53.564,25.691,54,27.935,54c7.694,0,14.102-5.065,15.796-12.073c0.295-1.221,0.317-2.499,0.318-3.821l-0.001-20.928
			C44.048,16.729,43.681,16.362,43.233,16.362L43.233,16.362z M20.326,16.77h-7.625c-0.448,0-0.815,0.367-0.815,0.815
			c0,0-0.004,15.821-0.006,20.688c0.013,1.262,0.167,2.485,0.448,3.654c0.996,4.132,3.578,7.587,7.1,9.728
			c-0.639-1.503-0.691-3.022-0.15-4.52c0.542-1.497,1.567-2.631,3.046-3.37c0.354-0.176,0.712-0.313,1.073-0.418
			c-1.11-1.013-1.867-2.433-2.16-4.119c-0.086-0.492-0.095-0.964-0.095-1.501V17.585C21.141,17.138,20.774,16.77,20.326,16.77
			L20.326,16.77z M46.976,16.945c-0.034,0-0.053,0.032-0.053,0.113c0,1.662,0,36.137,0,36.137c0,0.442,0.362,0.805,0.806,0.805
			h7.535c0.442,0,0.804-0.363,0.804-0.805l0.001-20.416c0-3.215,0.544-5.555,1.625-7.02c0.031-0.041,0.078-0.11,0.113-0.182
			c0.018-0.051-0.112-0.14-0.112-0.14s-10.39-8.261-10.533-8.378C47.083,16.994,47.019,16.945,46.976,16.945L46.976,16.945z"/>
	</g>
	<g id="Grid">
	</g>
</g>
<g id="Extras">
</g>
</svg>
